<?xml version="1.0" encoding="UTF-8" standalone="no"?>
<!-- Svg Vector Icons : http://www.onlinewebfonts.com/icon -->

<svg
   version="1.1"
   x="0px"
   y="0px"
   viewBox="0 0 1000 1000"
   enable-background="new 0 0 1000 1000"
   xml:space="preserve"
   id="svg14"
   sodipodi:docname="983fd501f3c35b570aac8d18fb8cd996.svg"
   inkscape:export-filename="D:\Work\Project\Hack\GoodbyeCaveira\GoodbyeCaveira\images\983fd501f3c35b570aac8d18fb8cd996.png"
   inkscape:export-xdpi="96"
   inkscape:export-ydpi="96"
   inkscape:version="1.1 (c68e22c387, 2021-05-23)"
   xmlns:inkscape="http://www.inkscape.org/namespaces/inkscape"
   xmlns:sodipodi="http://sodipodi.sourceforge.net/DTD/sodipodi-0.dtd"
   xmlns="http://www.w3.org/2000/svg"
   xmlns:svg="http://www.w3.org/2000/svg"><defs
   id="defs18" /><sodipodi:namedview
   id="namedview16"
   pagecolor="#ffffff"
   bordercolor="#666666"
   borderopacity="1.0"
   inkscape:pageshadow="2"
   inkscape:pageopacity="0.0"
   inkscape:pagecheckerboard="0"
   showgrid="false"
   inkscape:zoom="0.831"
   inkscape:cx="499.39832"
   inkscape:cy="499.39832"
   inkscape:window-width="1920"
   inkscape:window-height="1017"
   inkscape:window-x="-8"
   inkscape:window-y="-8"
   inkscape:window-maximized="1"
   inkscape:current-layer="svg14" />
<metadata
   id="metadata2"> Svg Vector Icons : http://www.onlinewebfonts.com/icon </metadata>
<g
   id="g12"><g
     transform="translate(0.000000,511.000000) scale(0.100000,-0.100000)"
     id="g10"><path
       d="M4818.4,4516.8c-362.5-117.1-578.6-414.3-578.6-790.3c0-331,162.1-592.1,454.8-736.2c135.1-67.5,168.9-74.3,353.5-74.3c173.4,0,220.6,9,331,60.8c171.1,78.8,333.2,234.2,414.3,394c58.5,119.3,65.3,150.8,65.3,355.7c0,202.6-6.7,238.7-63,349c-144.1,283.7-405.3,452.5-713.7,466.1C4980.5,4546,4874.7,4534.8,4818.4,4516.8z"
       id="path4" /><path
       d="M6860.5,2961V1508.8h-463.8h-463.8l-445.8,371.5l-445.8,371.5l-526.9,267.9l-524.6,270.2l-774.5,146.3c-427.8,81.1-826.3,148.6-884.8,148.6c-65.3,0-146.3-18-200.4-45c-99.1-51.8-1164-1083-1263.1-1222.5c-159.8-229.6-69.8-560.6,191.4-695.7c180.1-90.1,439-47.3,567.4,94.6c24.8,27,234.2,231.9,466.1,454.8l421,403l353.5-67.5c193.6-38.3,358-72.1,362.5-78.8c4.5-4.5-189.1-387.3-434.5-848.8c-243.2-459.3-461.6-891.6-484.1-954.6c-130.6-371.5-87.8-686.7,119.3-882.6c85.6-81,258.9-182.4,1233.8-720.5c389.5-216.1,711.5-394,713.7-398.5c2.2-2.2-117.1-423.3-263.4-936.6c-148.6-513.3-270.2-968.1-270.2-1010.9c-2.3-353.5,371.5-601.1,686.7-454.8c108.1,49.5,200.4,144.1,245.4,249.9c18,42.8,195.9,650.7,396.3,1348.7c301.7,1051.4,360.2,1272.1,333.2,1296.8c-15.7,13.5-394,227.4-839.8,470.6c-445.8,245.4-819.5,452.5-828.5,463.8c-15.8,13.5,810.5,1616.6,864.6,1675.1c9,11.3,189.1-123.8,398.5-297.2c209.4-173.4,416.5-335.5,457.1-358c72-38.3,150.8-40.5,1179.8-40.5h1103.2l11.3,394l11.3,394l56.3,6.7c47.3,4.5,159.8-99.1,686.7-625.9l630.4-630.4l-632.7-632.6c-522.3-520.1-643.9-630.4-686.7-623.7l-54,6.8l-11.3,394l-11.3,394l-488.6,6.7l-490.8,4.5v-1925v-1925h1519.7H9900l-4.5,4318.3l-6.7,4316.1l-1513,6.7l-1515.2,4.5V2961z"
       id="path6" /><path
       d="M1817.2-1328c-141.8-308.5-173.4-360.2-222.9-369.3c-31.5-6.7-297.2-38.3-587.6-69.8c-598.9-65.3-711.5-101.3-817.3-254.4c-202.6-290.4-42.8-695.7,297.2-763.3c63-11.3,1805.7,162.1,1816.9,180.1c36,63,486.3,1053.7,479.6,1060.5c-4.5,4.5-130.6,78.8-279.2,162.1c-186.9,105.8-308.5,191.4-396.3,281.4L1981.6-970L1817.2-1328z"
       id="path8" /></g></g>
</svg>
