<?xml version="1.0" encoding="UTF-8" standalone="no"?>
<!-- Svg Vector Icons : http://www.onlinewebfonts.com/icon -->

<svg
   version="1.1"
   x="0px"
   y="0px"
   viewBox="0 0 1000 1000"
   enable-background="new 0 0 1000 1000"
   xml:space="preserve"
   id="svg14"
   sodipodi:docname="983fd501f3c35b570aac8d18fb8cd996.fix_and_greeen.svg"
   inkscape:version="1.1 (c68e22c387, 2021-05-23)"
   inkscape:export-filename="D:\Work\Project\Hack\GoodbyeCaveira\GoodbyeCaveira\images\983fd501f3c35b570aac8d18fb8cd996.png"
   inkscape:export-xdpi="96"
   inkscape:export-ydpi="96"
   xmlns:inkscape="http://www.inkscape.org/namespaces/inkscape"
   xmlns:sodipodi="http://sodipodi.sourceforge.net/DTD/sodipodi-0.dtd"
   xmlns="http://www.w3.org/2000/svg"
   xmlns:svg="http://www.w3.org/2000/svg"><defs
   id="defs18" /><sodipodi:namedview
   id="namedview16"
   pagecolor="#ffffff"
   bordercolor="#666666"
   borderopacity="1.0"
   inkscape:pageshadow="2"
   inkscape:pageopacity="0.0"
   inkscape:pagecheckerboard="0"
   showgrid="true"
   showguides="true"
   inkscape:zoom="0.4155"
   inkscape:cx="363.41757"
   inkscape:cy="134.77738"
   inkscape:window-width="1920"
   inkscape:window-height="1017"
   inkscape:window-x="-8"
   inkscape:window-y="-8"
   inkscape:window-maximized="1"
   inkscape:current-layer="svg14"><inkscape:grid
     type="xygrid"
     id="grid2296" /></sodipodi:namedview>
<metadata
   id="metadata2"> Svg Vector Icons : http://www.onlinewebfonts.com/icon </metadata>
<g
   id="g12"
   style="fill:#00ff00"><g
     transform="translate(0.000000,511.000000) scale(0.100000,-0.100000)"
     id="g10"
     style="fill:#00ff00"><path
       d="m 5226.8372,4074.3264 c -362.5,-117.1 -578.6,-414.3 -578.6,-790.3 0,-331 162.1,-592.1 454.8,-736.2 135.1,-67.5 168.9,-74.3 353.5,-74.3 173.4,0 220.6,9 331,60.8 171.1,78.8 333.2,234.2 414.3,394 58.5,119.3 65.3,150.8 65.3,355.7 0,202.6 -6.7,238.7 -63,349 -144.1,283.7 -405.3,452.5 -713.7,466.1 -101.5,4.4 -207.3,-6.8 -263.6,-24.8 z"
       id="path4"
       style="fill:#00ff00" /><path
       d="m 6850,1510 -453.3,-1.2 h -463.8 l -445.8,371.5 -445.8,371.5 -526.9,267.9 -524.6,270.2 -774.5,146.3 c -427.8,81.1 -826.3,148.6 -884.8,148.6 -65.3,0 -146.3,-18 -200.4,-45 C 2031,2988 966.1,1956.8 867,1817.3 c -159.8,-229.6 -69.8,-560.6 191.4,-695.7 180.1,-90.1 439,-47.3 567.4,94.6 24.8,27 234.2,231.9 466.1,454.8 l 421,403 353.5,-67.5 c 193.6,-38.3 358,-72.1 362.5,-78.8 4.5,-4.5 -189.1,-387.3 -434.5,-848.8 -243.2,-459.3 -461.6,-891.6 -484.1,-954.6 -130.6,-371.5 -87.8,-686.7 119.3,-882.6 85.6,-81 258.9,-182.4 1233.8,-720.5 389.5,-216.1 711.5,-394 713.7,-398.5 2.2,-2.2 -117.1,-423.3 -263.4,-936.6 -148.6,-513.3 -270.2,-968.1 -270.2,-1010.9 -2.3,-353.5 371.3083,-600.6863 686.7,-454.8 107.9094,49.9141 200.4,144.1 245.4,249.9 18,42.8 195.9,650.7 396.3,1348.7 301.7,1051.4 360.2,1272.1 333.2,1296.8 -15.7,13.5 -394,227.4 -839.8,470.6 -445.8,245.4 -819.5,452.5 -828.5,463.8 -15.8,13.5 810.5,1616.6 864.6,1675.1 9,11.3 189.1,-123.8 398.5,-297.2 209.4,-173.4 416.5,-335.5 457.1,-358 72,-38.3 150.8,-40.5 1179.8,-40.5 H 7840 l 11.3,394 11.3,394 56.3,6.7 c 47.3,4.5 159.8,-99.1 686.7,-625.9 L 9236,68 8603.3,-564.6 C 8081,-1084.7 7959.4,-1195 7916.6,-1188.3 l -54,6.8 -11.3,394 -11.3,394 -488.6,6.7 -501.4,-3.2 c -7.6279,-1319.3169 -12.7853,-2630.7781 0,-3950 h 1550 1500 l -4.5,4426 4.5,4324 c -1013.1368,-1.3437 -2036.8671,-2.2448 -3050,0 0.1026,-1010.1414 0,-1864.2596 0,-2900 z"
       id="path6"
       style="fill:#00ff00"
       sodipodi:nodetypes="ccccccccscccccccccccccccsccccccscscccccccccccccccccccc"
       inkscape:export-filename="D:\Work\Project\Hack\GoodbyeCaveira\src\cs\GoodbyeCaveira\images\www.onlinewebfonts.com\983fd501f3c35b570aac8d18fb8cd996.fix_and_greeen.png"
       inkscape:export-xdpi="96"
       inkscape:export-ydpi="96" /><path
       d="M1817.2-1328c-141.8-308.5-173.4-360.2-222.9-369.3c-31.5-6.7-297.2-38.3-587.6-69.8c-598.9-65.3-711.5-101.3-817.3-254.4c-202.6-290.4-42.8-695.7,297.2-763.3c63-11.3,1805.7,162.1,1816.9,180.1c36,63,486.3,1053.7,479.6,1060.5c-4.5,4.5-130.6,78.8-279.2,162.1c-186.9,105.8-308.5,191.4-396.3,281.4L1981.6-970L1817.2-1328z"
       id="path8"
       style="fill:#00ff00" /></g></g>
</svg>
